<?xml version="1.0" encoding="UTF-8" standalone="no"?>
<!DOCTYPE svg PUBLIC "-//W3C//DTD SVG 1.1//EN" "http://www.w3.org/Graphics/SVG/1.1/DTD/svg11.dtd">
<svg width="100%" height="100%" viewBox="0 0 261 261" version="1.1" xmlns="http://www.w3.org/2000/svg" xmlns:xlink="http://www.w3.org/1999/xlink" xml:space="preserve" xmlns:serif="http://www.serif.com/" style="fill-rule:evenodd;clip-rule:evenodd;stroke-linejoin:round;stroke-miterlimit:2;">
    <g transform="matrix(1,0,0,1,-1626.6,-1000.29)">
        <g>
            <g transform="matrix(1.4674,0,0,1.4674,-772.94,-481.784)">
                <path d="M1812.6,1054.34L1812.6,1143.03C1812.6,1167.5 1792.73,1187.37 1768.26,1187.37L1679.57,1187.37C1655.1,1187.37 1635.23,1167.5 1635.23,1143.03L1635.23,1054.34C1635.23,1029.87 1655.1,1010 1679.57,1010L1768.26,1010C1792.73,1010 1812.6,1029.87 1812.6,1054.34Z" style="fill:rgb(37,75,110);"/>
            </g>
            <g transform="matrix(0.629632,-0.776893,1.39486,1.13046,-1015.83,1170.73)">
                <rect x="1715.21" y="1172.82" width="6.337" height="35.779" style="fill:rgb(128,128,128);"/>
            </g>
            <g transform="matrix(0.623672,0.752438,-1.38232,1.14576,2336.65,-1527.35)">
                <rect x="1715.21" y="1172.82" width="6.337" height="35.779" style="fill:rgb(123,123,123);"/>
            </g>
            <g transform="matrix(0.758868,0,0,0.99339,391.472,-16.5691)">
                <path d="M1795.39,1173.71L1795.39,1192.26C1795.39,1197.38 1789.95,1201.54 1783.25,1201.54L1703.87,1201.54C1697.16,1201.54 1691.72,1197.38 1691.72,1192.26L1691.72,1173.71C1691.72,1168.59 1697.16,1164.43 1703.87,1164.43L1783.25,1164.43C1789.95,1164.43 1795.39,1168.59 1795.39,1173.71Z" style="fill:white;"/>
            </g>
            <g transform="matrix(0.846296,0,0,1.13109,302.161,-122.571)">
                <path d="M1795.39,1173.71L1795.39,1192.26C1795.39,1197.38 1789.84,1201.54 1782.99,1201.54L1704.12,1201.54C1697.28,1201.54 1691.72,1197.38 1691.72,1192.26L1691.72,1173.71C1691.72,1168.59 1697.28,1164.43 1704.12,1164.43L1782.99,1164.43C1789.84,1164.43 1795.39,1168.59 1795.39,1173.71Z" style="fill:white;"/>
            </g>
            <g transform="matrix(0.365199,0,0,0.831269,1122.12,232.179)">
                <path d="M1795.39,1173.71L1795.39,1192.26C1795.39,1197.38 1785.93,1201.54 1774.27,1201.54L1712.84,1201.54C1701.19,1201.54 1691.72,1197.38 1691.72,1192.26L1691.72,1173.71C1691.72,1168.59 1701.19,1164.43 1712.84,1164.43L1774.27,1164.43C1785.93,1164.43 1795.39,1168.59 1795.39,1173.71Z" style="fill:rgb(198,198,198);"/>
            </g>
            <g transform="matrix(0.292996,0,0,0.734455,1222.31,289.747)">
                <path d="M1795.39,1173.71L1795.39,1192.26C1795.39,1197.38 1784.97,1201.54 1772.13,1201.54L1714.98,1201.54C1702.14,1201.54 1691.72,1197.38 1691.72,1192.26L1691.72,1173.71C1691.72,1168.59 1702.14,1164.43 1714.98,1164.43L1772.13,1164.43C1784.97,1164.43 1795.39,1168.59 1795.39,1173.71Z" style="fill:rgb(198,198,198);"/>
            </g>
            <g transform="matrix(0.670449,0,0,0.813961,619.723,150.736)">
                <path d="M1795.39,1173.71L1795.39,1192.26C1795.39,1197.38 1790.34,1201.54 1784.13,1201.54L1702.99,1201.54C1696.77,1201.54 1691.72,1197.38 1691.72,1192.26L1691.72,1173.71C1691.72,1168.59 1696.77,1164.43 1702.99,1164.43L1784.13,1164.43C1790.34,1164.43 1795.39,1168.59 1795.39,1173.71Z" style="fill:white;"/>
            </g>
            <g transform="matrix(0.255227,0,0,0.578939,1326.67,428.764)">
                <path d="M1795.39,1173.71L1795.39,1192.26C1795.39,1197.38 1785.96,1201.54 1774.35,1201.54L1712.77,1201.54C1701.15,1201.54 1691.72,1197.38 1691.72,1192.26L1691.72,1173.71C1691.72,1168.59 1701.15,1164.43 1712.77,1164.43L1774.35,1164.43C1785.96,1164.43 1795.39,1168.59 1795.39,1173.71Z" style="fill:rgb(198,198,198);"/>
            </g>
            <g transform="matrix(1,0,0,1,1.00587,-1.00516)">
                <rect x="1781.06" y="1202.65" width="31.709" height="2.802" style="fill:rgb(198,198,198);"/>
            </g>
            <g transform="matrix(1,0,0,1,-99.1074,-55.9254)">
                <rect x="1781.06" y="1202.65" width="31.709" height="2.802" style="fill:rgb(198,198,198);"/>
            </g>
            <g transform="matrix(0.937704,0,0,1,119.913,-97.3124)">
                <rect x="1781.06" y="1202.65" width="31.709" height="2.802" style="fill:rgb(198,198,198);"/>
            </g>
            <g transform="matrix(1,0,0,1,1.00587,18.0336)">
                <rect x="1781.06" y="1202.65" width="31.709" height="2.802" style="fill:rgb(198,198,198);"/>
            </g>
            <g transform="matrix(1,0,0,1,-99.1074,-34.9838)">
                <rect x="1781.06" y="1202.65" width="31.709" height="2.802" style="fill:rgb(198,198,198);"/>
            </g>
            <g transform="matrix(1,0,0,1,1.00587,5.34108)">
                <rect x="1781.06" y="1202.65" width="31.709" height="2.802" style="fill:rgb(198,198,198);"/>
            </g>
            <g transform="matrix(1,0,0,1,-99.1074,-48.9449)">
                <rect x="1781.06" y="1202.65" width="31.709" height="2.802" style="fill:rgb(198,198,198);"/>
            </g>
            <g transform="matrix(0.937704,0,0,1,119.913,-90.4122)">
                <rect x="1781.06" y="1202.65" width="31.709" height="2.802" style="fill:rgb(198,198,198);"/>
            </g>
            <g transform="matrix(1,0,0,1,1.00587,11.6873)">
                <rect x="1781.06" y="1202.65" width="31.709" height="2.802" style="fill:rgb(198,198,198);"/>
            </g>
            <g transform="matrix(-1.32533,0.00562735,-0.00512486,-1.20699,4062.76,2389.83)">
                <path d="M1711.2,1062.5C1711.2,1062.5 1735.71,1101.72 1735.71,1118.53C1735.71,1133.38 1724.73,1145.44 1711.2,1145.44C1697.68,1145.44 1686.7,1133.38 1686.7,1118.53C1686.7,1101.72 1711.2,1062.5 1711.2,1062.5Z" style="fill:rgb(239,133,112);"/>
            </g>
            <g transform="matrix(1,0,0,1,80.9547,-23.2132)">
                <circle cx="1708.16" cy="1073.72" r="16.482" style="fill:white;"/>
            </g>
            <g transform="matrix(1,0,0,1,-99.1074,-41.9643)">
                <rect x="1781.06" y="1202.65" width="31.709" height="2.802" style="fill:rgb(198,198,198);"/>
            </g>
            <g transform="matrix(0.937704,0,0,1,119.913,-83.6331)">
                <rect x="1781.06" y="1202.65" width="31.709" height="2.802" style="fill:rgb(198,198,198);"/>
            </g>
            <g transform="matrix(1,0,0,1,1.00587,24.3798)">
                <rect x="1781.06" y="1202.65" width="31.709" height="2.802" style="fill:rgb(198,198,198);"/>
            </g>
        </g>
    </g>
</svg>
